<?xml version="1.0" encoding="utf-8"?><svg id="Layer_1" xmlns="http://www.w3.org/2000/svg" xmlns:xlink="http://www.w3.org/1999/xlink" viewBox="0 0 300 300" style="enable-background:new 0 0 300 300"><path style="fill:#312F30" d="M0 0h300v300H0z"/><linearGradient id="SVGID_1_" gradientUnits="userSpaceOnUse" x1="-301.231" y1="723.858" x2="-301.231" y2="724.581" gradientTransform="matrix(256 0 0 -278.1985 77264.992 201685.719)"><stop offset="0" style="stop-color:#FFF100"/><stop offset="1" style="stop-color:#F05A28"/></linearGradient><path d="M250.9 137.1c-.4-3.7-1-7.9-2.2-12.7-1.2-4.7-3-9.8-5.7-15.2s-6.1-10.8-10.6-16.2c-1.8-2.1-3.7-4.2-5.8-6.2 3.1-12.3-3.8-23-3.8-23-11.8-.7-19.3 3.7-22.1 5.7-.5-.2-.9-.4-1.4-.6-2-.8-4.1-1.6-6.2-2.2-2.1-.7-4.3-1.3-6.5-1.8s-4.5-1-6.8-1.3c-.4-.1-.8-.1-1.2-.2-5.2-16.5-19.9-23.4-19.9-23.4C142.1 50.5 139 65.2 139 65.2s-.1.3-.2.8c-.9.2-1.8.5-2.7.8-1.3.4-2.5.8-3.8 1.3-1.3.5-2.5 1-3.8 1.5-2.5 1.1-5 2.3-7.4 3.6-2.4 1.3-4.7 2.8-6.9 4.3l-.6-.2c-22.9-8.7-43.2 1.8-43.2 1.8-1.9 24.4 9.2 39.7 11.3 42.5l-1.5 4.5c-1.7 5.5-3 11.2-3.8 17-.1.8-.2 1.7-.3 2.5-21.2 10.5-27.5 31.9-27.5 31.9C66.4 197.9 87 199.2 87 199.2l.1-.1c2.6 4.7 5.6 9.1 9 13.3 1.5 1.8 2.9 3.4 4.5 5-6.4 18.4.9 33.7.9 33.7 19.6.7 32.5-8.6 35.3-10.7 1.9.7 3.9 1.3 5.9 1.8 6.1 1.6 12.2 2.5 18.4 2.7 1.5.1 3.1.1 4.6.1h2.2l1-.1v.1c9.3 13.2 25.5 15.1 25.5 15.1 11.6-12.2 12.2-24.3 12.2-26.9v-.2-.4-.5c2.4-1.7 4.7-3.5 6.9-5.5 4.6-4.2 8.7-9 12.1-14.1l.9-1.5c13.1.7 22.4-8.1 22.4-8.1-2.2-13.6-9.9-20.3-11.6-21.6 0 0-.1-.1-.2-.1l-.1-.2c-.1-.1-.2-.1-.3-.2.1-.8.1-1.6.2-2.5.1-1.5.1-3 .1-4.4V172v-.4l-.1-.9-.1-1.2c0-.4-.1-.8-.1-1.2-.1-.4-.1-.8-.1-1.2l-.1-1.2-.2-1.2c-.2-1.5-.5-3-.8-4.5-1.4-5.9-3.7-11.5-6.7-16.5s-6.8-9.5-11.1-13.2c-4.2-3.8-9-6.8-14-9s-10.2-3.7-15.5-4.4c-2.6-.4-5.2-.5-7.8-.4h-1.9l-1 .1c-.4 0-.7.1-1 .1-1.3.1-2.7.3-3.9.5-5.2 1-10.1 2.8-14.4 5.5-4.3 2.6-8.1 5.8-11.1 9.5s-5.4 7.7-7 11.9c-1.6 4.2-2.5 8.5-2.8 12.7-.1 1-.1 2.1-.1 3.2v.8l.1.8c.1.5.1 1 .1 1.5.2 2.1.6 4.2 1.2 6.1 1.2 3.9 3 7.5 5.2 10.5s5 5.5 7.8 7.5c2.8 1.9 5.9 3.3 9 4.2s6.1 1.3 8.9 1.3h1.5c.1 0 .4 0 .5-.1.3 0 .6-.1.9-.1.1 0 .2 0 .2-.1l.3-.1c.2 0 .4-.1.5-.1.4-.1.7-.1 1-.2s.7-.1 1-.2c.7-.1 1.3-.4 1.9-.5 1.2-.4 2.4-.9 3.5-1.5 1.1-.5 2.1-1.2 3-1.8.2-.2.5-.4.8-.6 1-.8 1.2-2.2.4-3.2-.7-.8-1.9-1.1-2.8-.5-.2.1-.5.2-.7.4-.8.4-1.7.8-2.6 1.1-.9.3-1.9.5-2.8.7-.5.1-1 .1-1.5.2-.2 0-.5.1-.8.1h-1.4c-.3 0-.6 0-.9-.1h-.5c-.1 0-.3 0-.4-.1-.3-.1-.5-.1-.8-.1-2.2-.3-4.5-1-6.6-1.9-2.2-1-4.2-2.3-6.1-4-1.9-1.7-3.5-3.7-4.8-6-1.3-2.3-2.2-4.8-2.6-7.5-.2-1.3-.3-2.7-.2-4.1 0-.4.1-.7.1-1.1v-.5c0-.2.1-.4.1-.5.1-.7.2-1.5.3-2.2 1-5.8 3.9-11.5 8.4-15.8 1.2-1.1 2.4-2.1 3.6-3 1.3-.9 2.7-1.7 4.1-2.4 1.5-.7 2.9-1.2 4.5-1.6 1.5-.4 3.1-.7 4.7-.8.8-.1 1.6-.1 2.4-.1H179.6l.7.1c1.8.1 3.5.4 5.2.8 3.4.7 6.7 2 9.8 3.7 6.2 3.5 11.5 8.8 14.7 15.2 1.6 3.2 2.8 6.7 3.3 10.2l.3 2.7.1.7.1.7v2.7c0 .4-.1 1.2-.1 1.6l-.3 3c-.1 1-.3 1.9-.5 2.9s-.4 1.9-.7 2.8c-.5 1.9-1.1 3.8-1.8 5.6-1.5 3.6-3.4 7.2-5.7 10.4-4.7 6.4-11 11.6-18.3 15-3.6 1.6-7.5 2.8-11.4 3.5-1.9.4-3.9.5-5.9.6h-2.9H165.9c-1.1 0-2.1-.1-3.2-.2-4.2-.3-8.4-1.1-12.5-2.2-4.1-1.2-8-2.8-11.8-4.7-7.5-4-14.2-9.5-19.4-16.1-2.6-3.3-4.9-6.8-6.8-10.5-1.9-3.7-3.4-7.6-4.5-11.6s-1.8-8.1-2.1-12.2l-.1-.8V155v-.5-1.5c.1-2 .2-4.1.5-6.2.2-2.1.6-4.2 1-6.2s.9-4.1 1.5-6.2c1.2-4.1 2.6-8 4.3-11.7 3.5-7.4 7.9-14 13.3-19.3 1.3-1.3 2.7-2.5 4.2-3.8 1.5-1.2 3-2.2 4.5-3.3 1.5-1 3.2-1.9 4.8-2.8.8-.4 1.6-.8 2.5-1.2.4-.2.8-.4 1.3-.5.4-.2.8-.4 1.3-.5 1.7-.7 3.5-1.3 5.3-1.9.4-.1.9-.2 1.3-.4.4-.1.9-.2 1.3-.4.9-.2 1.8-.5 2.7-.7.4-.1.9-.2 1.4-.3.5-.1.9-.2 1.4-.3.5-.1.9-.2 1.4-.2l.7-.1.7-.1c.5-.1.9-.1 1.4-.2.5-.1 1-.1 1.6-.2.4-.1 1.2-.1 1.6-.2.3-.1.7-.1 1-.1l.7-.1.3-.1h.4c.5-.1 1-.1 1.6-.1l.8-.1H171c.4 0 .9-.1 1.3-.1 1.8-.1 3.6-.1 5.3 0 3.5.1 7 .5 10.3 1.2 6.7 1.3 13 3.4 18.8 6.2 5.8 2.8 10.8 6.2 15.3 10 .3.2.5.5.8.7.2.2.5.5.8.7.5.5 1 1 1.6 1.5s1 1 1.5 1.5l1.5 1.5c1.9 2 3.6 4 5.2 6.1 3.2 4.1 5.7 8.2 7.7 12.1.1.2.2.5.4.7.1.2.2.5.4.7.2.5.5 1 .7 1.5.2.5.4.9.7 1.4.2.5.4.9.6 1.4.7 1.8 1.5 3.6 2 5.2.9 2.7 1.6 5 2.1 7.1.2.8 1 1.4 1.8 1.3.9-.1 1.6-.8 1.6-1.7-.1-2.1-.2-4.7-.5-7.7z" style="fill:url(#SVGID_1_)"/><image style="overflow:visible" width="180" height="174" xlink:href="../../../Desktop/Screen Shot 2019-04-24 at 10.44.24 AM.png" transform="matrix(.5 0 0 .5 -300 204)"/></svg>