<?xml version="1.0" encoding="utf-8"?><svg id="Layer_1" xmlns="http://www.w3.org/2000/svg" viewBox="0 0 210.6 204.6" style="enable-background:new 0 0 210.6 204.6"><path style="fill:#326CE5" d="M0 0h211v204.5H0z"/><path d="M95.9 91.2l-13.6-9.7c4.3-4.3 9.8-7.2 15.7-8.6 1.1-.3 2.2-.4 3.4-.6l-1 16.7h-.1c-.1 1.5-1.4 2.7-2.9 2.7-.5 0-1.1-.2-1.5-.5zm-4.5 22.1h-.5l-16.4 2.8c2.5 6.8 7.1 12.6 13.2 16.5l6.3-15.3v-.1c.1-.3.2-.7.2-1.1 0-1.5-1.3-2.8-2.8-2.8zm-2.8-9.6c.5-.1 1-.4 1.4-.9 1-1.2.9-2.9-.3-3.9v-.1L77.3 87.7c-3.8 6.2-5.4 13.4-4.6 20.6l15.9-4.6zm12.1 4.9l4.6 2.2 4.6-2.2 1.1-4.9-3.2-4h-5.1l-3.2 4 1.2 4.9zm7.1 12.9c-.3-.5-.7-.9-1.1-1.1-1.4-.7-3.1-.2-3.8 1.1l-8 14.5c5.8 2 11.9 2.3 17.9.9 1.1-.3 2.2-.6 3.2-.9l-8.2-14.5zm13-22.7c-.4.4-.7.9-.8 1.4-.4 1.5.5 3 2 3.4v.1l16 4.6c.7-7.2-1-14.4-4.8-20.6l-12.4 11.1zM110.2 89c0 .5.2 1.1.5 1.5.9 1.2 2.7 1.5 3.9.6l13.5-9.6c-5.2-5-11.8-8.3-19-9.2l1.1 16.7zm75.7 40.1l-40 49.7c-2.1 2.6-5.3 4.1-8.6 4.1H73.2c-3.3 0-6.5-1.5-8.6-4.1l-40-49.7-.6-.9c-1.6-2.5-2.1-5.5-1.5-8.4l14.2-62c.8-3.2 3-6 6-7.4l57.7-27.6c3-1.4 6.6-1.4 9.6 0l57.7 27.6c3 1.5 5.2 4.2 6 7.4l14.3 62c.8 3.2 0 6.6-2.1 9.3zm-27-15.2c-.2-.1-.4-.1-.6-.1-.3-.1-.7-.2-.9-.2-1-.1-2-.2-3-.2-1.9-.1-3.8-.4-5.7-.9-.6-.3-1-.8-1.4-1.4l-1.3-.4c1.4-10-1-20.1-6.6-28.5.3-.3.9-.8 1.1-1 0-.7.2-1.3.6-1.8 1.5-1.3 3-2.4 4.7-3.3.9-.5 1.8-1 2.6-1.5.2-.2.5-.4.7-.6 1.5-.9 1.9-2.9 1-4.4-.9-1.5-2.9-1.9-4.4-1-.2.1-.4.3-.5.4-.2.2-.5.4-.7.6-.7.7-1.4 1.4-2.1 2.2-1.3 1.4-2.7 2.7-4.3 3.9-.6.2-1.3.3-1.9.2l-1.2.9c-6.9-7.3-16.3-11.8-26.3-12.7 0-.4-.1-1.2-.1-1.4-.5-.4-.9-.9-1-1.6-.1-1.9.1-3.8.4-5.7.2-1 .3-2 .4-3v-.9c.2-1.7-1.1-3.3-2.8-3.5-1.7-.2-3.3 1.1-3.5 2.8v1.5c.1 1 .2 2 .4 3 .3 1.9.4 3.8.4 5.7-.2.6-.5 1.2-1 1.6l-.1 1.3c-1.9.2-3.8.5-5.7.9-7.9 1.8-15.1 5.9-20.7 11.8-.4-.3-.8-.5-1.1-.8-.6.2-1.3.1-1.9-.2-1.5-1.1-3-2.4-4.3-3.9-.7-.8-1.3-1.5-2.1-2.2-.2-.2-.5-.4-.7-.6-.6-.5-1.4-.8-2.2-.8-1-.1-1.9.4-2.5 1.1-1.1 1.5-.7 3.6.8 4.7.2.2.5.4.7.5.8.6 1.7 1.1 2.6 1.5 1.7.9 3.3 2.1 4.7 3.3.4.5.6 1.2.6 1.8l1 .9c-5.6 8.4-7.9 18.6-6.5 28.6l-1.3.4c-.3.6-.8 1-1.4 1.4-1.9.5-3.8.8-5.7.9-1 0-2 .1-3 .2-.2 0-.6.1-.8.2-1.7.2-3 1.8-2.7 3.6s1.8 3 3.6 2.7c.2 0 .4-.1.6-.1h.1c.3-.1.6-.1.8-.2 1-.3 1.9-.7 2.8-1.1 1.8-.7 3.6-1.3 5.5-1.6.7 0 1.3.3 1.8.6l1.4-.2c3.1 9.6 9.6 17.7 18.3 22.8l-.6 1.4c.3.6.4 1.2.3 1.8-.8 1.8-1.7 3.5-2.9 5.2-.6.8-1.2 1.7-1.7 2.5-.1.2-.3.6-.4.9-.9 1.5-.4 3.5 1.1 4.4 1.5.9 3.5.4 4.4-1.1l.3-.6.4-.8c.4-.9.7-1.9.9-2.9.5-2 1.4-3.9 2.5-5.7.4-.4.9-.6 1.4-.7l.7-1.3c9.4 3.6 19.8 3.6 29.2.1.2.4.6 1 .7 1.2.6.1 1.2.5 1.6 1 .9 1.7 1.6 3.5 2.2 5.3.3 1 .6 2 .9 2.9l.4.8c.6 1.7 2.4 2.5 4.1 1.9 1.7-.6 2.5-2.4 1.9-4.1l-.3-.6c-.1-.2-.3-.6-.4-.9-.5-.9-1.1-1.7-1.7-2.5-1.1-1.6-2-3.3-2.8-5-.2-.6-.1-1.3.2-1.9-.2-.4-.4-.8-.5-1.3 8.7-5.2 15.2-13.3 18.3-23 .4.1 1.1.2 1.4.2.5-.4 1.1-.7 1.8-.7 1.9.4 3.7.9 5.5 1.6.9.4 1.9.8 2.8 1.1.2.1.6.1.8.2h.1c1.7.5 3.5-.4 4-2 .4-1.3-.5-3-2.2-3.6zm-39.2-.6c-.2 0-.4-.1-.6 0-.4 0-.7.1-1.1.3-1.3.7-1.9 2.2-1.4 3.6l6.4 15.5c6.1-3.9 10.8-9.7 13.2-16.6l-16.5-2.8z" style="fill:#FFFFFF"/></svg>